<svg width="400" height="300" viewBox="0 0 400 300" xmlns="http://www.w3.org/2000/svg">
  <rect width="400" height="300" fill="#87CEEB"/>
  
  <!-- Background -->
  <rect x="0" y="200" width="400" height="100" fill="#90EE90"/>
  
  <!-- Girlfriend (left) -->
  <circle cx="80" cy="120" r="25" fill="#FFB6C1"/>
  <rect x="65" y="140" width="30" height="50" fill="#FF69B4"/>
  <rect x="55" y="185" width="15" height="25" fill="#8B4513"/>
  <rect x="85" y="185" width="15" height="25" fill="#8B4513"/>
  
  <!-- Boyfriend (center) -->
  <circle cx="200" cy="110" r="30" fill="#FDBCB4"/>
  <rect x="180" y="135" width="40" height="60" fill="#4169E1"/>
  <rect x="170" y="190" width="18" height="30" fill="#000080"/>
  <rect x="212" y="190" width="18" height="30" fill="#000080"/>
  
  <!-- Other woman (right) -->
  <circle cx="320" cy="115" r="28" fill="#FDBCB4"/>
  <rect x="300" y="138" width="40" height="55" fill="#DC143C"/>
  <rect x="290" y="188" width="18" height="32" fill="#8B4513"/>
  <rect x="322" y="188" width="18" height="32" fill="#8B4513"/>
  
  <!-- Boyfriend looking at other woman -->
  <circle cx="205" cy="105" r="3" fill="#000"/>
  <circle cx="195" cy="105" r="3" fill="#000"/>
  
  <!-- Text placeholders -->
  <text x="200" y="280" text-anchor="middle" font-family="Arial, sans-serif" font-size="16" font-weight="bold" fill="#000">DISTRACTED BOYFRIEND MEME</text>
</svg>
